<?xml version="1.0" encoding="utf-8"?>
<!-- Generator: Adobe Illustrator 28.3.0, SVG Export Plug-In . SVG Version: 6.00 Build 0)  -->
<svg version="1.1" id="Layer_1" xmlns="http://www.w3.org/2000/svg" xmlns:xlink="http://www.w3.org/1999/xlink" x="0px" y="0px"
	 viewBox="0 0 612 792" style="enable-background:new 0 0 612 792;" xml:space="preserve">
<style type="text/css">
	.st0{fill:#FBFCF1;}
	.st1{opacity:0.4;}
	.st2{fill:#CEC6BB;}
	.st3{fill:#236590;}
	.st4{fill:#2E80B9;}
	.st5{fill:#99C7E6;}
</style>
<g>
	<polygon class="st0" points="17.84,218.91 17.84,545.34 300.54,708.55 583.24,545.34 583.24,218.91 300.54,55.69 	"/>
	<g>
		<g class="st1">
			<path class="st2" d="M62.07,294.77c-8.2,4.73-15.82,1-22.87-11.2c-7.24-12.54-6.76-21.17,1.44-25.91
				c8.2-4.73,15.92-0.83,23.16,11.7C70.85,281.56,70.27,290.03,62.07,294.77z M59.37,290.09c4.58-2.64,4.24-8.5-1-17.58
				c-5.44-9.42-10.45-12.81-15.02-10.17c-4.57,2.64-4.14,8.67,1.3,18.09C49.88,289.51,54.79,292.73,59.37,290.09z M53.7,280.28
				c-1.13,0.66-2.26,0.83-3.37,0.54c-1.11-0.3-1.99-1.01-2.65-2.15c-0.67-1.15-0.85-2.28-0.54-3.38c0.3-1.1,1.02-1.98,2.16-2.63
				c1.15-0.67,2.28-0.85,3.37-0.56c1.1,0.29,1.98,1.02,2.64,2.17c0.66,1.14,0.84,2.26,0.55,3.36
				C55.58,278.73,54.85,279.61,53.7,280.28z"/>
			<path class="st2" d="M67.63,374.83c-8.2,4.73-15.82,1-22.87-11.2c-7.24-12.54-6.76-21.17,1.44-25.91s15.92-0.83,23.16,11.71
				C76.41,361.63,75.83,370.1,67.63,374.83z M64.93,370.16c4.57-2.64,4.24-8.5-1-17.58c-5.44-9.42-10.45-12.81-15.02-10.17
				c-4.57,2.64-4.14,8.67,1.3,18.09C55.45,369.58,60.35,372.8,64.93,370.16z M59.27,360.35c-1.14,0.66-2.26,0.83-3.37,0.54
				s-1.99-1.01-2.65-2.15c-0.67-1.15-0.85-2.28-0.54-3.38c0.3-1.1,1.02-1.98,2.16-2.63c1.15-0.67,2.28-0.85,3.37-0.56
				c1.1,0.29,1.98,1.02,2.64,2.17c0.66,1.13,0.84,2.25,0.55,3.36C61.14,358.8,60.42,359.68,59.27,360.35z"/>
			<path class="st2" d="M98.13,357.22c-8.2,4.74-15.82,1-22.87-11.2c-7.24-12.54-6.76-21.18,1.44-25.91
				c8.2-4.73,15.92-0.83,23.16,11.71C106.91,344.02,106.33,352.49,98.13,357.22z M95.43,352.55c4.58-2.64,4.24-8.5-1-17.58
				c-5.44-9.42-10.45-12.81-15.02-10.17c-4.57,2.64-4.14,8.67,1.3,18.09C85.94,351.97,90.85,355.19,95.43,352.55z M89.76,342.74
				c-1.13,0.66-2.26,0.83-3.37,0.54c-1.11-0.3-1.99-1.01-2.65-2.15c-0.67-1.15-0.85-2.28-0.54-3.38c0.3-1.1,1.02-1.98,2.16-2.63
				c1.15-0.67,2.28-0.85,3.37-0.56c1.1,0.29,1.98,1.02,2.64,2.17c0.66,1.13,0.84,2.25,0.55,3.36S90.92,342.07,89.76,342.74z"/>
			<path class="st2" d="M101.8,317.22l-2.96-5.13l6.78-7.98l3.02,5.24L101.8,317.22z M126.45,340.19l-20.84-36.09l5.29-3.05
				l20.84,36.09L126.45,340.19z M117.4,345.42l-2.79-4.83l9.56-5.52l2.79,4.83L117.4,345.42z M131.23,337.44l-2.79-4.83l8.59-4.96
				l2.79,4.83L131.23,337.44z"/>
			<path class="st2" d="M73.19,454.9c-8.2,4.73-15.82,1-22.87-11.2c-7.24-12.54-6.76-21.17,1.44-25.91
				c8.2-4.73,15.92-0.83,23.16,11.71C81.97,441.7,81.39,450.17,73.19,454.9z M70.49,450.22c4.57-2.64,4.24-8.5-1-17.58
				c-5.44-9.42-10.45-12.81-15.02-10.17c-4.58,2.64-4.14,8.67,1.3,18.09C61.01,449.64,65.92,452.87,70.49,450.22z M64.83,440.41
				c-1.14,0.66-2.26,0.83-3.37,0.54c-1.11-0.3-1.99-1.01-2.65-2.15c-0.67-1.15-0.85-2.28-0.54-3.38c0.3-1.1,1.02-1.98,2.16-2.63
				c1.15-0.67,2.28-0.85,3.37-0.56c1.1,0.29,1.98,1.02,2.64,2.17c0.66,1.13,0.84,2.25,0.55,3.36
				C66.7,438.86,65.98,439.75,64.83,440.41z"/>
			<path class="st2" d="M103.69,437.29c-8.2,4.73-15.82,1-22.87-11.2c-7.24-12.54-6.76-21.17,1.44-25.91
				c8.2-4.73,15.92-0.83,23.16,11.71C112.47,424.09,111.89,432.56,103.69,437.29z M100.99,432.62c4.57-2.64,4.24-8.5-1-17.58
				c-5.44-9.42-10.45-12.81-15.02-10.17c-4.57,2.64-4.14,8.67,1.3,18.09C91.51,432.04,96.42,435.26,100.99,432.62z M95.33,422.81
				c-1.14,0.66-2.26,0.83-3.37,0.54s-1.99-1.01-2.65-2.15c-0.67-1.15-0.85-2.28-0.54-3.38c0.3-1.1,1.02-1.98,2.16-2.63
				c1.15-0.67,2.28-0.85,3.37-0.56c1.1,0.29,1.98,1.02,2.64,2.17c0.66,1.13,0.84,2.25,0.55,3.36
				C97.2,421.26,96.48,422.14,95.33,422.81z"/>
			<path class="st2" d="M134.19,419.68c-8.2,4.74-15.82,1-22.87-11.2c-7.24-12.54-6.76-21.18,1.44-25.91
				c8.2-4.73,15.92-0.83,23.16,11.71C142.97,406.48,142.39,414.95,134.19,419.68z M131.49,415.01c4.58-2.64,4.24-8.5-1-17.58
				c-5.44-9.42-10.45-12.81-15.02-10.17c-4.57,2.64-4.14,8.67,1.3,18.09C122,414.43,126.91,417.65,131.49,415.01z M125.82,405.2
				c-1.13,0.66-2.26,0.83-3.37,0.54c-1.11-0.3-1.99-1.01-2.65-2.15c-0.67-1.15-0.85-2.28-0.54-3.38c0.3-1.1,1.02-1.98,2.16-2.63
				c1.15-0.67,2.28-0.85,3.37-0.56c1.1,0.29,1.98,1.02,2.64,2.17c0.66,1.13,0.84,2.25,0.55,3.36S126.98,404.53,125.82,405.2z"/>
			<path class="st2" d="M164.68,402.08c-8.2,4.73-15.82,1-22.87-11.2c-7.24-12.54-6.76-21.17,1.44-25.91s15.92-0.83,23.16,11.71
				C173.46,388.87,172.88,397.34,164.68,402.08z M161.99,397.4c4.57-2.64,4.24-8.5-1-17.58c-5.44-9.42-10.45-12.81-15.02-10.17
				c-4.57,2.64-4.14,8.67,1.3,18.09C152.5,396.82,157.41,400.04,161.99,397.4z M156.32,387.59c-1.14,0.66-2.26,0.83-3.37,0.54
				c-1.11-0.3-1.99-1.01-2.65-2.15c-0.67-1.15-0.85-2.28-0.55-3.38c0.3-1.1,1.02-1.98,2.16-2.63c1.15-0.67,2.28-0.85,3.37-0.56
				c1.1,0.29,1.98,1.02,2.64,2.17c0.66,1.13,0.84,2.25,0.55,3.36C158.19,386.04,157.47,386.92,156.32,387.59z"/>
			<path class="st2" d="M168.36,362.07l-2.96-5.13l6.78-7.98l3.02,5.24L168.36,362.07z M193.01,385.05l-20.84-36.09l5.29-3.05
				l20.84,36.09L193.01,385.05z M183.96,390.27l-2.79-4.83l9.56-5.52l2.79,4.83L183.96,390.27z M197.79,382.29l-2.79-4.83l8.59-4.96
				l2.79,4.83L197.79,382.29z"/>
			<path class="st2" d="M48.26,552.57c-8.2,4.73-15.82,1-22.87-11.2c-7.24-12.54-6.76-21.17,1.44-25.91
				c8.2-4.73,15.92-0.83,23.16,11.71C57.04,539.37,56.46,547.84,48.26,552.57z M45.56,547.9c4.57-2.64,4.24-8.5-1-17.58
				c-5.44-9.42-10.45-12.81-15.02-10.17c-4.58,2.64-4.14,8.67,1.3,18.09C36.07,547.32,40.98,550.54,45.56,547.9z M39.89,538.09
				c-1.14,0.66-2.26,0.83-3.37,0.54c-1.11-0.3-1.99-1.01-2.65-2.15c-0.67-1.15-0.85-2.28-0.54-3.38c0.3-1.1,1.02-1.98,2.16-2.63
				c1.15-0.67,2.28-0.85,3.37-0.56c1.1,0.29,1.98,1.02,2.64,2.17c0.66,1.13,0.84,2.25,0.55,3.36S41.05,537.42,39.89,538.09z"/>
			<path class="st2" d="M51.93,512.57l-2.96-5.13l6.78-7.98l3.02,5.24L51.93,512.57z M76.58,535.54l-20.84-36.09l5.29-3.05
				l20.84,36.09L76.58,535.54z M67.53,540.77l-2.79-4.83l9.56-5.52l2.79,4.83L67.53,540.77z M81.36,532.79l-2.79-4.83l8.59-4.96
				l2.79,4.83L81.36,532.79z"/>
			<path class="st2" d="M109.25,517.36c-8.2,4.73-15.82,1-22.87-11.2c-7.24-12.54-6.76-21.17,1.44-25.91
				c8.2-4.73,15.92-0.83,23.16,11.71C118.03,504.16,117.45,512.62,109.25,517.36z M106.55,512.68c4.57-2.64,4.24-8.5-1-17.58
				c-5.44-9.42-10.45-12.81-15.02-10.17c-4.58,2.64-4.14,8.67,1.3,18.09C97.07,512.1,101.98,515.32,106.55,512.68z M100.89,502.87
				c-1.14,0.66-2.26,0.83-3.37,0.54c-1.11-0.3-1.99-1.01-2.65-2.15c-0.67-1.15-0.85-2.28-0.54-3.38c0.3-1.1,1.02-1.98,2.16-2.63
				c1.15-0.67,2.28-0.85,3.37-0.56c1.1,0.29,1.98,1.02,2.64,2.17c0.66,1.13,0.84,2.25,0.55,3.36
				C102.76,501.32,102.04,502.21,100.89,502.87z"/>
			<path class="st2" d="M112.93,477.35l-2.96-5.13l6.78-7.98l3.02,5.24L112.93,477.35z M137.58,500.33l-20.84-36.09l5.29-3.05
				l20.84,36.09L137.58,500.33z M128.53,505.55l-2.79-4.83l9.56-5.52l2.79,4.83L128.53,505.55z M142.35,497.57l-2.79-4.83l8.59-4.96
				l2.79,4.83L142.35,497.57z"/>
			<path class="st2" d="M170.25,482.14c-8.2,4.74-15.82,1-22.87-11.2c-7.24-12.54-6.76-21.17,1.44-25.91
				c8.2-4.73,15.92-0.83,23.16,11.71C179.03,468.94,178.45,477.41,170.25,482.14z M167.55,477.47c4.58-2.64,4.24-8.5-1-17.58
				c-5.44-9.42-10.45-12.81-15.02-10.17c-4.57,2.64-4.14,8.67,1.3,18.09C158.06,476.89,162.97,480.11,167.55,477.47z M161.88,467.66
				c-1.13,0.66-2.26,0.83-3.37,0.54c-1.11-0.3-1.99-1.01-2.65-2.15c-0.67-1.15-0.85-2.28-0.54-3.38c0.3-1.1,1.02-1.98,2.16-2.63
				c1.15-0.67,2.28-0.85,3.37-0.56c1.1,0.29,1.98,1.02,2.64,2.17c0.66,1.13,0.84,2.25,0.55,3.36S163.04,466.99,161.88,467.66z"/>
			<path class="st2" d="M200.75,464.54c-8.2,4.73-15.82,1-22.87-11.2c-7.24-12.54-6.76-21.17,1.44-25.91s15.92-0.83,23.16,11.71
				C209.52,451.33,208.95,459.8,200.75,464.54z M198.05,459.86c4.57-2.64,4.24-8.5-1-17.58c-5.44-9.42-10.45-12.81-15.02-10.17
				c-4.57,2.64-4.14,8.67,1.3,18.09C188.56,459.28,193.47,462.5,198.05,459.86z M192.38,450.05c-1.14,0.66-2.26,0.83-3.37,0.54
				c-1.11-0.3-1.99-1.01-2.65-2.15c-0.67-1.15-0.85-2.28-0.55-3.38c0.3-1.1,1.02-1.98,2.16-2.63c1.15-0.67,2.28-0.85,3.37-0.56
				c1.1,0.29,1.98,1.02,2.64,2.17c0.66,1.13,0.84,2.25,0.55,3.36C194.25,448.5,193.53,449.38,192.38,450.05z"/>
			<path class="st2" d="M231.24,446.93c-8.2,4.73-15.82,1-22.87-11.2c-7.24-12.54-6.76-21.17,1.44-25.91
				c8.2-4.73,15.92-0.83,23.16,11.71C240.02,433.73,239.44,442.19,231.24,446.93z M228.54,442.25c4.57-2.64,4.24-8.5-1-17.58
				c-5.44-9.42-10.45-12.81-15.02-10.17c-4.57,2.64-4.14,8.67,1.3,18.09C219.06,441.67,223.97,444.89,228.54,442.25z M222.88,432.44
				c-1.14,0.66-2.26,0.83-3.37,0.54c-1.11-0.3-1.99-1.01-2.65-2.15c-0.67-1.15-0.85-2.28-0.54-3.38c0.3-1.1,1.02-1.98,2.16-2.63
				c1.15-0.67,2.28-0.85,3.37-0.56c1.1,0.29,1.98,1.02,2.64,2.17c0.66,1.13,0.84,2.25,0.55,3.36
				C224.75,430.89,224.03,431.78,222.88,432.44z"/>
			<path class="st2" d="M234.92,406.92l-2.96-5.13l6.78-7.98l3.02,5.24L234.92,406.92z M259.57,429.9l-20.84-36.09l5.29-3.05
				l20.84,36.09L259.57,429.9z M250.52,435.12l-2.79-4.83l9.56-5.52l2.79,4.83L250.52,435.12z M264.34,427.14l-2.79-4.83l8.59-4.96
				l2.79,4.83L264.34,427.14z"/>
			<path class="st2" d="M292.24,411.71c-8.2,4.74-15.82,1-22.87-11.2c-7.24-12.54-6.76-21.18,1.44-25.91
				c8.2-4.73,15.92-0.83,23.16,11.71C301.02,398.51,300.44,406.98,292.24,411.71z M289.54,407.04c4.57-2.64,4.24-8.5-1-17.58
				c-5.44-9.42-10.45-12.81-15.02-10.17c-4.58,2.64-4.14,8.67,1.3,18.09C280.05,406.46,284.96,409.68,289.54,407.04z M283.87,397.23
				c-1.14,0.66-2.26,0.83-3.37,0.54c-1.11-0.3-1.99-1.01-2.65-2.15c-0.67-1.15-0.85-2.28-0.54-3.38c0.3-1.1,1.02-1.98,2.16-2.63
				c1.15-0.67,2.28-0.85,3.37-0.56c1.1,0.29,1.98,1.02,2.64,2.17c0.66,1.13,0.84,2.25,0.55,3.36
				C285.75,395.68,285.03,396.56,283.87,397.23z"/>
			<path class="st2" d="M145.31,579.82c-8.2,4.73-15.82,1-22.87-11.2c-7.24-12.54-6.76-21.17,1.44-25.91
				c8.2-4.73,15.92-0.83,23.16,11.71C154.09,566.62,153.51,575.08,145.31,579.82z M142.61,575.14c4.57-2.64,4.24-8.5-1-17.58
				c-5.44-9.42-10.45-12.81-15.02-10.17c-4.58,2.64-4.14,8.67,1.3,18.09C133.13,574.56,138.04,577.78,142.61,575.14z M136.95,565.33
				c-1.14,0.66-2.26,0.83-3.37,0.54c-1.11-0.3-1.99-1.01-2.65-2.15c-0.67-1.15-0.85-2.28-0.54-3.38c0.3-1.1,1.02-1.98,2.16-2.63
				c1.15-0.67,2.28-0.85,3.37-0.56c1.1,0.29,1.98,1.02,2.64,2.17c0.66,1.13,0.84,2.25,0.55,3.36
				C138.82,563.78,138.1,564.67,136.95,565.33z"/>
			<path class="st2" d="M148.99,539.81l-2.96-5.13l6.78-7.98l3.02,5.24L148.99,539.81z M173.64,562.79L152.8,526.7l5.29-3.05
				l20.84,36.09L173.64,562.79z M164.59,568.01l-2.79-4.83l9.56-5.52l2.79,4.83L164.59,568.01z M178.41,560.03l-2.79-4.83l8.59-4.96
				l2.79,4.83L178.41,560.03z"/>
			<path class="st2" d="M179.48,522.21l-2.96-5.13l6.78-7.98l3.02,5.24L179.48,522.21z M204.13,545.18l-20.84-36.09l5.29-3.05
				l20.84,36.09L204.13,545.18z M195.09,550.4l-2.79-4.83l9.56-5.52l2.79,4.83L195.09,550.4z M208.91,542.42l-2.79-4.83l8.59-4.96
				l2.79,4.83L208.91,542.42z"/>
			<path class="st2" d="M236.81,526.99c-8.2,4.73-15.82,1-22.87-11.2c-7.24-12.54-6.76-21.17,1.44-25.91s15.92-0.83,23.16,11.71
				C245.58,513.79,245.01,522.26,236.81,526.99z M234.11,522.32c4.57-2.64,4.24-8.5-1-17.58c-5.44-9.42-10.45-12.81-15.02-10.17
				c-4.57,2.64-4.14,8.67,1.3,18.09C224.62,521.74,229.53,524.96,234.11,522.32z M228.44,512.51c-1.14,0.66-2.26,0.83-3.37,0.54
				c-1.11-0.3-1.99-1.01-2.65-2.15c-0.67-1.15-0.85-2.28-0.55-3.38c0.3-1.1,1.02-1.98,2.16-2.63c1.15-0.67,2.28-0.85,3.37-0.56
				c1.1,0.29,1.98,1.02,2.64,2.17c0.66,1.13,0.84,2.25,0.55,3.36C230.31,510.96,229.59,511.84,228.44,512.51z"/>
			<path class="st2" d="M267.3,509.39c-8.2,4.73-15.82,1-22.87-11.2c-7.24-12.54-6.76-21.17,1.44-25.91
				c8.2-4.73,15.92-0.83,23.16,11.71C276.08,496.19,275.5,504.65,267.3,509.39z M264.6,504.71c4.57-2.64,4.24-8.5-1-17.58
				c-5.44-9.42-10.45-12.81-15.02-10.17c-4.57,2.64-4.14,8.67,1.3,18.09C255.12,504.13,260.03,507.35,264.6,504.71z M258.94,494.9
				c-1.14,0.66-2.26,0.83-3.37,0.54c-1.11-0.3-1.99-1.01-2.65-2.15c-0.67-1.15-0.85-2.28-0.54-3.38c0.3-1.1,1.02-1.98,2.16-2.63
				c1.15-0.67,2.28-0.85,3.37-0.56s1.98,1.02,2.64,2.17c0.66,1.13,0.84,2.25,0.55,3.36C260.81,493.35,260.09,494.24,258.94,494.9z"
				/>
			<path class="st2" d="M270.98,469.38l-2.96-5.13l6.78-7.98l3.02,5.24L270.98,469.38z M295.63,492.36l-20.84-36.09l5.29-3.05
				l20.84,36.09L295.63,492.36z M286.58,497.58l-2.79-4.83l9.56-5.52l2.79,4.83L286.58,497.58z M300.4,489.6l-2.79-4.83l8.59-4.96
				l2.79,4.83L300.4,489.6z"/>
			<path class="st2" d="M185.05,602.27l-2.96-5.13l6.78-7.98l3.02,5.24L185.05,602.27z M209.7,625.25l-20.84-36.09l5.29-3.05
				l20.84,36.09L209.7,625.25z M200.65,630.47l-2.79-4.83l9.56-5.52l2.79,4.83L200.65,630.47z M214.48,622.49l-2.79-4.83l8.59-4.96
				l2.79,4.83L214.48,622.49z"/>
			<path class="st2" d="M242.37,607.06c-8.2,4.74-15.82,1-22.87-11.2c-7.24-12.54-6.76-21.17,1.44-25.91
				c8.2-4.73,15.92-0.83,23.16,11.71C251.15,593.86,250.57,602.33,242.37,607.06z M239.67,602.38c4.58-2.64,4.24-8.5-1-17.58
				c-5.44-9.42-10.45-12.81-15.02-10.17c-4.57,2.64-4.14,8.67,1.3,18.09C230.19,601.81,235.09,605.03,239.67,602.38z M234,592.57
				c-1.13,0.66-2.26,0.83-3.37,0.54c-1.11-0.3-1.99-1.01-2.65-2.15c-0.67-1.15-0.85-2.28-0.54-3.38c0.3-1.1,1.02-1.98,2.16-2.63
				c1.15-0.67,2.28-0.85,3.37-0.56c1.1,0.29,1.98,1.02,2.64,2.17c0.66,1.13,0.84,2.25,0.55,3.36S235.16,591.91,234,592.57z"/>
			<path class="st2" d="M272.87,589.45c-8.2,4.73-15.82,1-22.87-11.2c-7.24-12.54-6.76-21.17,1.44-25.91s15.92-0.83,23.16,11.71
				C281.65,576.25,281.07,584.72,272.87,589.45z M270.17,584.78c4.57-2.64,4.24-8.5-1-17.58c-5.44-9.42-10.45-12.81-15.02-10.17
				c-4.57,2.64-4.14,8.67,1.3,18.09C260.68,584.2,265.59,587.42,270.17,584.78z M264.5,574.97c-1.14,0.66-2.26,0.83-3.37,0.54
				c-1.11-0.3-1.99-1.01-2.65-2.15c-0.67-1.15-0.85-2.28-0.55-3.38c0.3-1.1,1.02-1.98,2.16-2.63c1.15-0.67,2.28-0.85,3.37-0.56
				c1.1,0.29,1.98,1.02,2.64,2.17c0.66,1.13,0.84,2.25,0.55,3.36C266.38,573.42,265.65,574.3,264.5,574.97z"/>
			<path class="st2" d="M276.54,549.45l-2.96-5.13l6.78-7.98l3.02,5.24L276.54,549.45z M301.19,572.42l-20.84-36.09l5.29-3.05
				l20.84,36.09L301.19,572.42z M292.14,577.65l-2.79-4.83l9.56-5.52l2.79,4.83L292.14,577.65z M305.97,569.67l-2.79-4.83l8.59-4.96
				l2.79,4.83L305.97,569.67z"/>
			<path class="st2" d="M278.43,669.52c-8.2,4.74-15.82,1-22.87-11.2c-7.24-12.54-6.76-21.17,1.44-25.91
				c8.2-4.73,15.92-0.83,23.16,11.71C287.21,656.32,286.63,664.79,278.43,669.52z M275.73,664.84c4.58-2.64,4.24-8.5-1-17.58
				c-5.44-9.42-10.45-12.81-15.02-10.17c-4.57,2.64-4.14,8.67,1.3,18.09C266.25,664.26,271.16,667.49,275.73,664.84z M270.07,655.03
				c-1.13,0.66-2.26,0.84-3.37,0.54c-1.11-0.3-1.99-1.01-2.65-2.15c-0.67-1.15-0.85-2.28-0.54-3.38c0.3-1.1,1.02-1.98,2.16-2.63
				c1.15-0.67,2.28-0.85,3.37-0.56s1.98,1.02,2.64,2.17c0.66,1.13,0.84,2.25,0.55,3.36S271.22,654.37,270.07,655.03z"/>
			<path class="st2" d="M282.1,629.52l-2.96-5.13l6.78-7.98l3.02,5.24L282.1,629.52z M306.75,652.49l-20.84-36.09l5.29-3.05
				l20.84,36.09L306.75,652.49z M297.71,657.71l-2.79-4.83l9.56-5.52l2.79,4.83L297.71,657.71z M311.53,649.73l-2.79-4.83l8.59-4.96
				l2.79,4.83L311.53,649.73z"/>
		</g>
	</g>
	<g>
		<g class="st1">
			<path class="st2" d="M540,295.66c-8.2-4.73-8.78-13.2-1.74-25.4c7.24-12.54,14.96-16.44,23.16-11.71s8.68,13.37,1.44,25.91
				C555.82,296.66,548.2,300.4,540,295.66z M542.7,290.98c4.57,2.64,9.48-0.58,14.73-9.66c5.44-9.42,5.87-15.45,1.3-18.09
				c-4.58-2.64-9.58,0.75-15.02,10.17C538.46,282.48,538.12,288.34,542.7,290.98z M548.36,281.17c-1.13-0.66-1.85-1.54-2.15-2.65
				c-0.3-1.11-0.12-2.23,0.54-3.37c0.67-1.15,1.55-1.87,2.65-2.16c1.1-0.29,2.22-0.11,3.36,0.55c1.15,0.67,1.87,1.55,2.17,2.64
				c0.29,1.1,0.11,2.22-0.56,3.37c-0.66,1.13-1.53,1.85-2.63,2.16C550.64,282.02,549.51,281.84,548.36,281.17z"/>
			<path class="st2" d="M473.44,340.51c-8.2-4.73-8.78-13.2-1.74-25.4c7.24-12.54,14.96-16.44,23.16-11.71s8.68,13.37,1.44,25.91
				C489.26,341.52,481.64,345.25,473.44,340.51z M476.14,335.84c4.57,2.64,9.48-0.58,14.73-9.66c5.44-9.42,5.87-15.45,1.3-18.09
				c-4.58-2.64-9.58,0.75-15.02,10.17C471.9,327.33,471.57,333.2,476.14,335.84z M481.8,326.03c-1.13-0.66-1.85-1.54-2.15-2.65
				c-0.3-1.11-0.12-2.23,0.54-3.37c0.67-1.15,1.55-1.87,2.65-2.16c1.1-0.29,2.22-0.11,3.36,0.55c1.15,0.67,1.87,1.55,2.17,2.64
				c0.29,1.1,0.11,2.22-0.56,3.37c-0.66,1.13-1.53,1.85-2.63,2.16C484.08,326.87,482.96,326.69,481.8,326.03z"/>
			<path class="st2" d="M503.94,358.12c-8.2-4.73-8.78-13.2-1.74-25.4c7.24-12.54,14.96-16.44,23.16-11.71s8.68,13.37,1.44,25.91
				C519.76,359.12,512.14,362.85,503.94,358.12z M506.64,353.44c4.57,2.64,9.48-0.58,14.73-9.66c5.44-9.42,5.87-15.45,1.3-18.09
				c-4.58-2.64-9.58,0.75-15.02,10.17C502.4,344.94,502.06,350.8,506.64,353.44z M512.3,343.63c-1.13-0.66-1.85-1.54-2.15-2.65
				c-0.3-1.11-0.12-2.23,0.54-3.37c0.67-1.15,1.55-1.87,2.65-2.16c1.1-0.29,2.22-0.11,3.36,0.55c1.15,0.67,1.87,1.55,2.17,2.64
				c0.29,1.1,0.11,2.22-0.56,3.37c-0.66,1.13-1.53,1.85-2.63,2.16C514.58,344.48,513.45,344.3,512.3,343.63z"/>
			<path class="st2" d="M523.8,368.91l2.79-4.83l9.56,5.52l-2.79,4.83L523.8,368.91z M532.85,374.13l20.84-36.09l5.29,3.05
				l-20.84,36.09L532.85,374.13z M537.63,376.89l2.79-4.83l8.59,4.96l-2.79,4.83L537.63,376.89z M540.42,341.3l2.96-5.13l10.3,1.88
				l-3.02,5.24L540.42,341.3z"/>
			<path class="st2" d="M406.88,385.36c-8.2-4.73-8.78-13.2-1.74-25.4c7.24-12.54,14.96-16.44,23.16-11.71s8.68,13.37,1.44,25.91
				C422.71,386.37,415.08,390.1,406.88,385.36z M409.58,380.69c4.57,2.64,9.48-0.58,14.73-9.66c5.44-9.42,5.87-15.45,1.3-18.09
				c-4.58-2.64-9.58,0.75-15.02,10.17C405.34,372.19,405.01,378.05,409.58,380.69z M415.25,370.88c-1.13-0.66-1.85-1.54-2.15-2.65
				c-0.3-1.11-0.12-2.23,0.54-3.37c0.67-1.15,1.55-1.87,2.65-2.16c1.1-0.29,2.22-0.11,3.36,0.55c1.15,0.66,1.87,1.54,2.17,2.64
				c0.29,1.1,0.11,2.22-0.56,3.37c-0.66,1.14-1.53,1.85-2.63,2.16C417.52,371.72,416.4,371.54,415.25,370.88z"/>
			<path class="st2" d="M437.38,402.97c-8.2-4.73-8.78-13.2-1.74-25.4c7.24-12.54,14.96-16.44,23.16-11.71s8.68,13.37,1.44,25.91
				C453.2,403.97,445.58,407.71,437.38,402.97z M440.08,398.3c4.57,2.64,9.48-0.58,14.73-9.66c5.44-9.42,5.87-15.45,1.3-18.09
				c-4.58-2.64-9.58,0.75-15.02,10.17C435.84,389.79,435.5,395.65,440.08,398.3z M445.74,388.49c-1.13-0.66-1.85-1.54-2.15-2.65
				c-0.3-1.11-0.12-2.23,0.54-3.37c0.67-1.15,1.55-1.87,2.65-2.16c1.1-0.29,2.22-0.11,3.36,0.55c1.15,0.67,1.87,1.55,2.17,2.64
				c0.29,1.1,0.11,2.22-0.56,3.37c-0.66,1.13-1.53,1.85-2.63,2.16C448.02,389.33,446.9,389.15,445.74,388.49z"/>
			<path class="st2" d="M467.88,420.58c-8.2-4.73-8.78-13.2-1.74-25.4c7.24-12.54,14.96-16.44,23.16-11.71s8.68,13.37,1.44,25.91
				C483.7,421.58,476.08,425.31,467.88,420.58z M470.58,415.9c4.57,2.64,9.48-0.58,14.73-9.66c5.44-9.42,5.87-15.45,1.3-18.09
				c-4.58-2.64-9.58,0.75-15.02,10.17C466.34,407.4,466,413.26,470.58,415.9z M476.24,406.09c-1.13-0.66-1.85-1.54-2.15-2.65
				c-0.3-1.11-0.12-2.23,0.54-3.37c0.67-1.15,1.55-1.87,2.65-2.16c1.1-0.29,2.22-0.11,3.36,0.55c1.15,0.67,1.87,1.55,2.17,2.64
				c0.29,1.1,0.11,2.22-0.56,3.37c-0.66,1.13-1.53,1.85-2.63,2.16C478.52,406.94,477.39,406.76,476.24,406.09z"/>
			<path class="st2" d="M498.38,438.19c-8.2-4.73-8.78-13.2-1.74-25.4c7.24-12.54,14.96-16.44,23.16-11.71
				c8.2,4.73,8.68,13.37,1.44,25.91C514.2,439.19,506.58,442.92,498.38,438.19z M501.08,433.51c4.57,2.64,9.48-0.58,14.73-9.66
				c5.44-9.42,5.87-15.45,1.3-18.09c-4.58-2.64-9.58,0.75-15.02,10.17C496.84,425.01,496.5,430.87,501.08,433.51z M506.74,423.7
				c-1.14-0.66-1.85-1.54-2.15-2.65c-0.3-1.11-0.12-2.23,0.54-3.37c0.67-1.15,1.55-1.87,2.65-2.16c1.1-0.29,2.22-0.11,3.36,0.55
				c1.15,0.67,1.87,1.55,2.17,2.64c0.29,1.1,0.11,2.22-0.56,3.37c-0.66,1.14-1.53,1.85-2.63,2.16
				C509.02,424.55,507.89,424.37,506.74,423.7z"/>
			<path class="st2" d="M518.24,448.98l2.79-4.83l9.56,5.52l-2.79,4.83L518.24,448.98z M527.29,454.2l20.84-36.09l5.29,3.05
				l-20.84,36.09L527.29,454.2z M532.06,456.96l2.79-4.83l8.59,4.96l-2.79,4.83L532.06,456.96z M534.86,421.37l2.96-5.13l10.3,1.88
				l-3.02,5.24L534.86,421.37z"/>
			<path class="st2" d="M309.83,412.61c-8.2-4.73-8.78-13.2-1.74-25.4c7.24-12.54,14.96-16.44,23.16-11.71s8.68,13.37,1.44,25.91
				C325.65,413.61,318.03,417.34,309.83,412.61z M312.53,407.93c4.57,2.64,9.48-0.58,14.73-9.66c5.44-9.42,5.87-15.45,1.3-18.09
				c-4.57-2.64-9.58,0.75-15.02,10.17C308.29,399.43,307.95,405.29,312.53,407.93z M318.19,398.12c-1.13-0.65-1.85-1.54-2.15-2.65
				c-0.3-1.11-0.12-2.23,0.54-3.37c0.67-1.15,1.55-1.87,2.65-2.16c1.1-0.29,2.22-0.11,3.36,0.55c1.15,0.67,1.87,1.55,2.17,2.64
				c0.29,1.1,0.11,2.22-0.56,3.37c-0.66,1.14-1.53,1.85-2.63,2.16C320.47,398.97,319.34,398.79,318.19,398.12z"/>
			<path class="st2" d="M329.69,423.4l2.79-4.83l9.56,5.52l-2.79,4.83L329.69,423.4z M338.74,428.62l20.84-36.09l5.29,3.05
				l-20.84,36.09L338.74,428.62z M343.52,431.38l2.79-4.83l8.59,4.96l-2.79,4.83L343.52,431.38z M346.31,395.79l2.96-5.13l10.3,1.88
				l-3.02,5.24L346.31,395.79z"/>
			<path class="st2" d="M370.82,447.82c-8.2-4.73-8.78-13.2-1.74-25.4c7.24-12.54,14.96-16.44,23.16-11.71s8.68,13.37,1.44,25.91
				C386.64,448.83,379.02,452.56,370.82,447.82z M373.52,443.15c4.57,2.64,9.48-0.58,14.73-9.66c5.44-9.42,5.87-15.45,1.3-18.09
				c-4.58-2.64-9.58,0.75-15.02,10.17C369.28,434.64,368.95,440.51,373.52,443.15z M379.19,433.34c-1.13-0.66-1.85-1.54-2.15-2.65
				c-0.3-1.11-0.12-2.23,0.54-3.37c0.67-1.15,1.55-1.87,2.65-2.16c1.1-0.29,2.22-0.11,3.36,0.55c1.15,0.66,1.87,1.54,2.17,2.64
				c0.29,1.1,0.11,2.22-0.56,3.37c-0.66,1.14-1.53,1.85-2.63,2.16C381.46,434.18,380.34,434,379.19,433.34z"/>
			<path class="st2" d="M390.69,458.61l2.79-4.83l9.56,5.52l-2.79,4.83L390.69,458.61z M399.73,463.84l20.84-36.09l5.29,3.05
				l-20.84,36.09L399.73,463.84z M404.51,466.6l2.79-4.83l8.59,4.96l-2.79,4.83L404.51,466.6z M407.3,431l2.96-5.13l10.3,1.88
				l-3.02,5.24L407.3,431z"/>
			<path class="st2" d="M431.82,483.04c-8.2-4.73-8.78-13.2-1.74-25.4c7.24-12.54,14.96-16.44,23.16-11.71s8.68,13.37,1.44,25.91
				C447.64,484.04,440.02,487.77,431.82,483.04z M434.52,478.36c4.57,2.64,9.48-0.58,14.73-9.66c5.44-9.42,5.87-15.45,1.3-18.09
				c-4.58-2.64-9.58,0.75-15.02,10.17C430.28,469.86,429.94,475.72,434.52,478.36z M440.18,468.55c-1.13-0.66-1.85-1.54-2.15-2.65
				c-0.3-1.11-0.12-2.23,0.54-3.37c0.67-1.15,1.55-1.87,2.65-2.16c1.1-0.29,2.22-0.11,3.36,0.55c1.15,0.67,1.87,1.55,2.17,2.64
				c0.29,1.1,0.11,2.22-0.56,3.37c-0.66,1.13-1.53,1.85-2.63,2.16C442.46,469.4,441.33,469.22,440.18,468.55z"/>
			<path class="st2" d="M462.32,500.65c-8.2-4.73-8.78-13.2-1.74-25.4c7.24-12.54,14.96-16.44,23.16-11.71s8.68,13.37,1.44,25.91
				C478.14,501.65,470.52,505.38,462.32,500.65z M465.01,495.97c4.57,2.64,9.48-0.58,14.73-9.66c5.44-9.42,5.87-15.45,1.3-18.09
				c-4.58-2.64-9.58,0.75-15.02,10.17C460.78,487.47,460.44,493.33,465.01,495.97z M470.68,486.16c-1.14-0.66-1.85-1.54-2.15-2.65
				c-0.3-1.11-0.12-2.23,0.54-3.37c0.67-1.15,1.55-1.87,2.65-2.16c1.1-0.29,2.22-0.11,3.36,0.55c1.15,0.67,1.87,1.55,2.17,2.64
				c0.29,1.1,0.11,2.22-0.56,3.37c-0.66,1.14-1.53,1.85-2.63,2.16C472.96,487.01,471.83,486.83,470.68,486.16z"/>
			<path class="st2" d="M492.81,518.25c-8.2-4.73-8.78-13.2-1.74-25.4c7.24-12.54,14.96-16.44,23.16-11.71s8.68,13.37,1.44,25.91
				C508.63,519.26,501.01,522.99,492.81,518.25z M495.51,513.58c4.57,2.64,9.48-0.58,14.73-9.66c5.44-9.42,5.87-15.45,1.3-18.09
				c-4.58-2.64-9.58,0.75-15.02,10.17C491.27,505.08,490.94,510.94,495.51,513.58z M501.18,503.77c-1.14-0.66-1.85-1.54-2.15-2.65
				c-0.3-1.11-0.12-2.23,0.54-3.37c0.67-1.15,1.55-1.87,2.65-2.16c1.1-0.29,2.22-0.11,3.36,0.55c1.15,0.67,1.87,1.55,2.17,2.64
				c0.29,1.1,0.11,2.22-0.56,3.37c-0.66,1.14-1.53,1.85-2.63,2.16C503.45,504.61,502.33,504.43,501.18,503.77z"/>
			<path class="st2" d="M512.68,529.04l2.79-4.83l9.56,5.52l-2.79,4.83L512.68,529.04z M521.72,534.27l20.84-36.09l5.29,3.05
				l-20.84,36.09L521.72,534.27z M526.5,537.03l2.79-4.83l8.59,4.96l-2.79,4.83L526.5,537.03z M529.29,501.43l2.96-5.13l10.3,1.88
				l-3.02,5.24L529.29,501.43z"/>
			<path class="st2" d="M553.81,553.47c-8.2-4.73-8.78-13.2-1.74-25.4c7.24-12.54,14.96-16.44,23.16-11.71s8.68,13.37,1.44,25.91
				C569.63,554.47,562.01,558.2,553.81,553.47z M556.51,548.79c4.57,2.64,9.48-0.58,14.73-9.66c5.44-9.42,5.87-15.45,1.3-18.09
				c-4.58-2.64-9.58,0.75-15.02,10.17C552.27,540.29,551.93,546.15,556.51,548.79z M562.17,538.98c-1.14-0.65-1.85-1.54-2.15-2.65
				c-0.3-1.11-0.12-2.23,0.54-3.37c0.67-1.15,1.55-1.87,2.65-2.16c1.1-0.29,2.22-0.11,3.36,0.55c1.15,0.67,1.87,1.55,2.17,2.64
				c0.29,1.1,0.11,2.22-0.56,3.37c-0.66,1.13-1.53,1.85-2.63,2.16C564.45,539.83,563.32,539.65,562.17,538.98z"/>
			<path class="st2" d="M304.26,492.67c-8.2-4.73-8.78-13.2-1.74-25.4c7.24-12.54,14.96-16.44,23.16-11.71s8.68,13.37,1.44,25.91
				C320.09,493.68,312.46,497.41,304.26,492.67z M306.96,488c4.57,2.64,9.48-0.58,14.73-9.66c5.44-9.42,5.87-15.45,1.3-18.09
				c-4.58-2.64-9.58,0.75-15.02,10.17C302.72,479.5,302.39,485.36,306.96,488z M312.63,478.19c-1.13-0.66-1.85-1.54-2.15-2.65
				c-0.3-1.11-0.12-2.23,0.54-3.37c0.67-1.15,1.55-1.87,2.65-2.16c1.1-0.29,2.22-0.11,3.36,0.55c1.15,0.66,1.87,1.54,2.17,2.64
				c0.29,1.1,0.11,2.22-0.56,3.37c-0.66,1.13-1.53,1.85-2.63,2.16C314.91,479.04,313.78,478.85,312.63,478.19z"/>
			<path class="st2" d="M324.13,503.46l2.79-4.83l9.56,5.52l-2.79,4.83L324.13,503.46z M333.17,508.69l20.84-36.09l5.29,3.05
				l-20.84,36.09L333.17,508.69z M337.95,511.45l2.79-4.83l8.59,4.96l-2.79,4.83L337.95,511.45z M340.75,475.85l2.96-5.13l10.3,1.88
				l-3.02,5.24L340.75,475.85z"/>
			<path class="st2" d="M354.62,521.07l2.79-4.83l9.56,5.52l-2.79,4.83L354.62,521.07z M363.67,526.3l20.84-36.09l5.29,3.05
				l-20.84,36.09L363.67,526.3z M368.45,529.05l2.79-4.83l8.59,4.96l-2.79,4.83L368.45,529.05z M371.24,493.46l2.96-5.13l10.3,1.88
				l-3.02,5.24L371.24,493.46z"/>
			<path class="st2" d="M395.76,545.5c-8.2-4.73-8.78-13.2-1.74-25.4c7.24-12.54,14.96-16.44,23.16-11.71s8.68,13.37,1.44,25.91
				C411.58,546.5,403.96,550.23,395.76,545.5z M398.46,540.82c4.57,2.64,9.48-0.58,14.73-9.66c5.44-9.42,5.87-15.45,1.3-18.09
				c-4.58-2.64-9.58,0.75-15.02,10.17C394.22,532.32,393.88,538.18,398.46,540.82z M404.12,531.01c-1.13-0.66-1.85-1.54-2.15-2.65
				c-0.3-1.11-0.12-2.23,0.54-3.37c0.67-1.15,1.55-1.87,2.65-2.16c1.1-0.29,2.22-0.11,3.36,0.55c1.15,0.67,1.87,1.55,2.17,2.64
				c0.29,1.1,0.11,2.22-0.56,3.37c-0.66,1.13-1.53,1.85-2.63,2.16C406.4,531.86,405.27,531.68,404.12,531.01z"/>
			<path class="st2" d="M426.25,563.11c-8.2-4.73-8.78-13.2-1.74-25.4c7.24-12.54,14.96-16.44,23.16-11.71s8.68,13.37,1.44,25.91
				C442.08,564.11,434.46,567.84,426.25,563.11z M428.95,558.43c4.57,2.64,9.48-0.58,14.73-9.66c5.44-9.42,5.87-15.45,1.3-18.09
				c-4.58-2.64-9.58,0.75-15.02,10.17C424.71,549.93,424.38,555.79,428.95,558.43z M434.62,548.62c-1.14-0.66-1.85-1.54-2.15-2.65
				c-0.3-1.11-0.12-2.23,0.54-3.37c0.67-1.15,1.55-1.87,2.65-2.16c1.1-0.29,2.22-0.11,3.36,0.55c1.15,0.67,1.87,1.55,2.17,2.64
				c0.29,1.1,0.11,2.22-0.56,3.37c-0.66,1.14-1.53,1.85-2.63,2.16C436.9,549.47,435.77,549.28,434.62,548.62z"/>
			<path class="st2" d="M446.12,573.9l2.79-4.83l9.56,5.52l-2.79,4.83L446.12,573.9z M455.17,579.12L476,543.03l5.29,3.05
				l-20.84,36.09L455.17,579.12z M459.94,581.88l2.79-4.83l8.59,4.96l-2.79,4.83L459.94,581.88z M462.74,546.28l2.96-5.13l10.3,1.88
				l-3.02,5.24L462.74,546.28z"/>
			<path class="st2" d="M288.07,565.92l2.79-4.83l9.56,5.52l-2.79,4.83L288.07,565.92z M297.11,571.15l20.84-36.09l5.29,3.05
				L302.4,574.2L297.11,571.15z M301.89,573.91l2.79-4.83l8.59,4.96l-2.79,4.83L301.89,573.91z M304.69,538.31l2.96-5.13l10.3,1.88
				l-3.02,5.24L304.69,538.31z"/>
			<path class="st2" d="M329.2,590.35c-8.2-4.73-8.78-13.2-1.74-25.4c7.24-12.54,14.96-16.44,23.16-11.71s8.68,13.37,1.44,25.91
				C345.02,591.35,337.4,595.08,329.2,590.35z M331.9,585.67c4.57,2.64,9.48-0.58,14.73-9.66c5.44-9.42,5.87-15.45,1.3-18.09
				c-4.58-2.64-9.58,0.75-15.02,10.17C327.66,577.17,327.32,583.03,331.9,585.67z M337.56,575.86c-1.13-0.66-1.85-1.54-2.15-2.65
				c-0.3-1.11-0.12-2.23,0.54-3.37c0.67-1.15,1.55-1.87,2.65-2.16c1.1-0.29,2.22-0.11,3.36,0.55c1.15,0.67,1.87,1.55,2.17,2.64
				c0.29,1.1,0.11,2.22-0.56,3.37c-0.66,1.13-1.53,1.85-2.63,2.16C339.84,576.71,338.71,576.53,337.56,575.86z"/>
			<path class="st2" d="M359.7,607.96c-8.2-4.73-8.78-13.2-1.74-25.4c7.24-12.54,14.96-16.44,23.16-11.71s8.68,13.37,1.44,25.91
				C375.52,608.96,367.9,612.69,359.7,607.96z M362.4,603.28c4.57,2.64,9.48-0.58,14.73-9.66c5.44-9.42,5.87-15.45,1.3-18.09
				c-4.58-2.64-9.58,0.75-15.02,10.17C358.16,594.78,357.82,600.64,362.4,603.28z M368.06,593.47c-1.13-0.66-1.85-1.54-2.15-2.65
				c-0.3-1.11-0.12-2.23,0.54-3.37c0.67-1.15,1.55-1.87,2.65-2.16c1.1-0.29,2.22-0.11,3.36,0.55c1.15,0.67,1.87,1.55,2.17,2.64
				c0.29,1.1,0.11,2.22-0.56,3.37c-0.66,1.13-1.53,1.85-2.63,2.16C370.34,594.32,369.21,594.13,368.06,593.47z"/>
			<path class="st2" d="M379.56,618.75l2.79-4.83l9.56,5.52l-2.79,4.83L379.56,618.75z M388.61,623.97l20.84-36.09l5.29,3.05
				l-20.84,36.09L388.61,623.97z M393.38,626.73l2.79-4.83l8.59,4.96l-2.79,4.83L393.38,626.73z M396.18,591.13l2.96-5.13l10.3,1.88
				l-3.02,5.24L396.18,591.13z"/>
			<path class="st2" d="M293.14,652.81c-8.2-4.73-8.78-13.2-1.74-25.4c7.24-12.54,14.96-16.44,23.16-11.71s8.68,13.37,1.44,25.91
				C308.96,653.81,301.34,657.54,293.14,652.81z M295.84,648.13c4.57,2.64,9.48-0.58,14.73-9.66c5.44-9.42,5.87-15.45,1.3-18.09
				c-4.58-2.64-9.58,0.75-15.02,10.17C291.6,639.63,291.26,645.49,295.84,648.13z M301.5,638.32c-1.13-0.66-1.85-1.54-2.15-2.65
				c-0.3-1.11-0.12-2.23,0.54-3.37c0.67-1.15,1.55-1.87,2.65-2.16c1.1-0.29,2.22-0.11,3.36,0.55c1.15,0.67,1.87,1.55,2.17,2.64
				c0.29,1.1,0.11,2.22-0.56,3.37c-0.66,1.13-1.53,1.85-2.63,2.16C303.78,639.17,302.65,638.99,301.5,638.32z"/>
			<path class="st2" d="M313,663.6l2.79-4.83l9.56,5.52l-2.79,4.83L313,663.6z M322.05,668.82l20.84-36.09l5.29,3.05l-20.84,36.09
				L322.05,668.82z M326.83,671.58l2.79-4.83l8.59,4.96l-2.79,4.83L326.83,671.58z M329.62,635.99l2.96-5.13l10.3,1.88l-3.02,5.24
				L329.62,635.99z"/>
		</g>
	</g>
	<polygon class="st3" points="300.54,382.12 583.24,218.91 300.54,55.69 17.84,218.91 	"/>
	<path class="st4" d="M17.84,218.91v326.43l282.7,163.22V382.12L17.84,218.91z M269.82,655.33L48.57,527.6V272.13l221.24,127.74
		V655.33z"/>
	<path class="st5" d="M300.54,382.12v326.43l282.7-163.22V218.91L300.54,382.12z M552.51,527.6L331.27,655.33V399.86l221.24-127.74
		V527.6z"/>
	<polygon class="st2" points="316.33,373.01 311.05,376.06 28.36,212.84 33.61,209.81 	"/>
	<polygon class="st2" points="332.11,363.9 326.83,366.94 44.13,203.73 49.38,200.7 	"/>
	<polygon class="st2" points="572.76,224.97 567.48,228.01 284.78,64.8 290.03,61.77 	"/>
	<polygon class="st2" points="557.03,234.03 551.76,237.08 269.06,73.86 274.31,70.83 	"/>
	<polygon class="st5" points="405.02,613.51 478.77,570.93 478.77,485.77 405.02,528.35 	"/>
	<polygon class="st5" points="405.02,356.74 478.77,314.16 478.77,399.32 405.02,441.9 	"/>
	<polygon class="st4" points="122.32,473.29 122.32,570.18 111.43,578.4 199.79,623.8 196.07,612.76 	"/>
	<polygon class="st4" points="196.07,453.53 196.07,357.24 206.82,340.08 113.27,297.28 122.32,314.66 	"/>
</g>
</svg>
